<svg xmlns="http://www.w3.org/2000/svg" width="48" height="41.68" viewBox="0 0 48 41.68">
  <metadata><?xpacket begin="﻿" id="W5M0MpCehiHzreSzNTczkc9d"?>
<x:xmpmeta xmlns:x="adobe:ns:meta/" x:xmptk="Adobe XMP Core 5.6-c138 79.159824, 2016/09/14-01:09:01        ">
   <rdf:RDF xmlns:rdf="http://www.w3.org/1999/02/22-rdf-syntax-ns#">
      <rdf:Description rdf:about=""/>
   </rdf:RDF>
</x:xmpmeta>
                                                                                                    
                                                                                                    
                                                                                                    
                                                                                                    
                                                                                                    
                                                                                                    
                                                                                                    
                                                                                                    
                                                                                                    
                                                                                                    
                                                                                                    
                                                                                                    
                                                                                                    
                                                                                                    
                                                                                                    
                                                                                                    
                                                                                                    
                                                                                                    
                                                                                                    
                                                                                                    
                           
<?xpacket end="w"?></metadata>
<defs>
    <style>
      .cls-1 {
        fill: #44454a;
        fill-rule: evenodd;
      }
    </style>
  </defs>
  <path id="Forme_115" data-name="Forme 115" class="cls-1" d="M1289,2460.37h-46a0.994,0.994,0,0,0-1,.99v31.77a0.994,0.994,0,0,0,1,.99h13v6.95a1,1,0,0,0,1.71.71l7.71-7.66H1289a0.994,0.994,0,0,0,1-.99v-31.77A0.994,0.994,0,0,0,1289,2460.37Zm-22,27.8a1.985,1.985,0,1,1,2-1.99A2,2,0,0,1,1267,2488.17Zm1-8.02v1.07a1,1,0,0,1-2,0v-1.99a0.994,0.994,0,0,1,1-.99,4.965,4.965,0,1,0-5-4.96,1,1,0,0,1-2,0A7,7,0,1,1,1268,2480.15Z" transform="translate(-1242 -2460.38)"/>
</svg>
