<svg xmlns="http://www.w3.org/2000/svg" width="48" height="47.94" viewBox="0 0 48 47.94">
  <metadata><?xpacket begin="﻿" id="W5M0MpCehiHzreSzNTczkc9d"?>
<x:xmpmeta xmlns:x="adobe:ns:meta/" x:xmptk="Adobe XMP Core 5.6-c138 79.159824, 2016/09/14-01:09:01        ">
   <rdf:RDF xmlns:rdf="http://www.w3.org/1999/02/22-rdf-syntax-ns#">
      <rdf:Description rdf:about=""/>
   </rdf:RDF>
</x:xmpmeta>
                                                                                                    
                                                                                                    
                                                                                                    
                                                                                                    
                                                                                                    
                                                                                                    
                                                                                                    
                                                                                                    
                                                                                                    
                                                                                                    
                                                                                                    
                                                                                                    
                                                                                                    
                                                                                                    
                                                                                                    
                                                                                                    
                                                                                                    
                                                                                                    
                                                                                                    
                                                                                                    
                           
<?xpacket end="w"?></metadata>
<defs>
    <style>
      .cls-1 {
        fill: #44454a;
        fill-rule: evenodd;
      }
    </style>
  </defs>
  <path id="Forme_116" data-name="Forme 116" class="cls-1" d="M648,2496.99v4.99a1,1,0,0,0,1,1h12a1,1,0,0,0,1-1v-4.99H648Zm16.426-28.52c-2.227,1.56-3.377,5.63-3.424,12.11l-3.188,3.19,0.6-2.6c0.506-2.12-.426-3.56-1.574-4.05a2.937,2.937,0,0,0-3.615,1.4,41,41,0,0,0-3.221,8.46v8.01h10v-1.65c1.275-1.26,6.291-6.22,7.707-7.64a0.984,0.984,0,0,0,.293-0.71v-16.11C668,2467.44,665.635,2467.62,664.426,2468.47ZM628,2494.99h10v-8.01a41,41,0,0,0-3.221-8.46,2.937,2.937,0,0,0-3.615-1.4c-1.148.49-2.08,1.93-1.576,4.04l0.6,2.61L627,2480.58c-0.047-6.48-1.2-10.55-3.424-12.11-1.2-.84-3.574-1.03-3.574.41v16.11a0.993,0.993,0,0,0,.369.78c1.688,1.37,6.436,6.31,7.631,7.56v1.66Zm-2,2v4.99a1,1,0,0,0,1,1h12a1,1,0,0,0,1-1v-4.99H626Zm16-28.39-10-6.05V2474a0.991,0.991,0,0,0,.521.88l9.479,5.71V2468.6Zm1-1.73,11.984-6-10.507-5.73a1.016,1.016,0,0,0-.958,0l-10.47,5.71Zm1,1.73v11.99l11.479-5.71A0.991,0.991,0,0,0,656,2474v-11.41Z" transform="translate(-620 -2455.03)"/>
</svg>
