<svg xmlns="http://www.w3.org/2000/svg" viewBox="0 0 40 40"><defs><style>.cls-1{fill:#27add6;}.cls-2{fill:#108ab5;}.cls-3{fill:#fff;}</style></defs><title>flag-common-addedsugarfree</title><g id="Calque_14" data-name="Calque 14"><rect id="Rectangle-path" class="cls-1" width="40" height="39.98" rx="4" ry="4"/><path id="Rectangle" class="cls-2" d="M.08,23.37H40V36a4,4,0,0,1-4,4H4.08a4,4,0,0,1-4-4Z"/><path class="cls-3" d="M8.85,10.41a2.29,2.29,0,0,0,.58-.06,1.15,1.15,0,0,0,.37-.16A.53.53,0,0,0,10,10a.94.94,0,0,0,0-.3.69.69,0,0,0-.34-.58,5.12,5.12,0,0,0-1.17-.5,7.12,7.12,0,0,1-.72-.28,2.77,2.77,0,0,1-.64-.4,2,2,0,0,1-.47-.59,1.8,1.8,0,0,1-.18-.84A1.95,1.95,0,0,1,7.25,4.9a2.6,2.6,0,0,1,.85-.42,3.89,3.89,0,0,1,1.12-.15,4.86,4.86,0,0,1,1.29.15,4.9,4.9,0,0,1,.89.34l-.48,1.27a4.19,4.19,0,0,0-.68-.27,3.09,3.09,0,0,0-.91-.12,1.63,1.63,0,0,0-.85.16.52.52,0,0,0-.26.49.58.58,0,0,0,.09.33.91.91,0,0,0,.27.24,2.12,2.12,0,0,0,.4.19l.51.18c.38.14.71.28,1,.41a2.51,2.51,0,0,1,.71.47,1.66,1.66,0,0,1,.42.63,2.48,2.48,0,0,1,.14.87A1.86,1.86,0,0,1,11,11.23a3.65,3.65,0,0,1-2.18.55A5.89,5.89,0,0,1,8,11.72a5.23,5.23,0,0,1-.69-.14,3.53,3.53,0,0,1-.52-.17c-.15-.07-.27-.12-.37-.18L6.86,10a4.55,4.55,0,0,0,.81.32A4.44,4.44,0,0,0,8.85,10.41Z"/><path class="cls-3" d="M18,11.63c-.08-.25-.17-.5-.27-.76s-.18-.52-.28-.78H14.53c-.09.26-.18.52-.28.78l-.26.76H12.28q.41-1.16.78-2.13c.25-.65.49-1.27.73-1.85s.47-1.12.7-1.64.47-1,.72-1.52h1.57c.24.5.48,1,.71,1.52s.47,1.07.71,1.64.48,1.2.73,1.85.51,1.36.79,2.13ZM16,6.11l-.16.42-.24.62c-.09.24-.2.49-.31.77l-.34.89H17c-.11-.31-.22-.61-.33-.89s-.2-.54-.3-.77-.17-.44-.25-.62Z"/><path class="cls-3" d="M25.59,11.63c-.47-.82-1-1.62-1.53-2.42A24.85,24.85,0,0,0,22.29,7v4.68H20.66V4.49H22c.23.23.49.51.77.84s.57.68.87,1,.58.76.87,1.17.56.78.82,1.16V4.49H27v7.14Z"/><path class="cls-3" d="M30.68,10.41a2.29,2.29,0,0,0,.58-.06,1.15,1.15,0,0,0,.37-.16.53.53,0,0,0,.19-.23.94.94,0,0,0,.05-.3.69.69,0,0,0-.34-.58,5.12,5.12,0,0,0-1.17-.5,7.12,7.12,0,0,1-.72-.28A2.77,2.77,0,0,1,29,7.9a2,2,0,0,1-.47-.59,1.8,1.8,0,0,1-.18-.84,1.95,1.95,0,0,1,.73-1.57,2.6,2.6,0,0,1,.85-.42,3.89,3.89,0,0,1,1.12-.15,4.53,4.53,0,0,1,2.18.49l-.48,1.27a4.19,4.19,0,0,0-.68-.27,3.09,3.09,0,0,0-.91-.12,1.63,1.63,0,0,0-.85.16.52.52,0,0,0-.26.49.58.58,0,0,0,.09.33.91.91,0,0,0,.27.24,2.12,2.12,0,0,0,.4.19l.51.18c.38.14.71.28,1,.41a2.51,2.51,0,0,1,.71.47,1.66,1.66,0,0,1,.42.63,2.48,2.48,0,0,1,.14.87,1.86,1.86,0,0,1-.72,1.56,3.62,3.62,0,0,1-2.18.55,5.89,5.89,0,0,1-.88-.06,5.23,5.23,0,0,1-.69-.14,3.53,3.53,0,0,1-.52-.17c-.15-.07-.27-.12-.37-.18L28.69,10a4.55,4.55,0,0,0,.81.32A4.44,4.44,0,0,0,30.68,10.41Z"/><path class="cls-3" d="M5.35,20a2.08,2.08,0,0,0,.48,0,.9.9,0,0,0,.31-.14.48.48,0,0,0,.17-.21.86.86,0,0,0,0-.28.64.64,0,0,0-.29-.53,4,4,0,0,0-1-.45,6.57,6.57,0,0,1-.61-.26,2.09,2.09,0,0,1-.55-.36,1.78,1.78,0,0,1-.39-.54,1.61,1.61,0,0,1-.16-.76,2.09,2.09,0,0,1,.16-.81A1.64,1.64,0,0,1,4,15a2.08,2.08,0,0,1,.72-.39,3.11,3.11,0,0,1,1-.14,3.78,3.78,0,0,1,1.08.14,4.39,4.39,0,0,1,.76.31L7.09,16a5.12,5.12,0,0,0-.57-.25,2.52,2.52,0,0,0-.77-.1,1.4,1.4,0,0,0-.72.14.5.5,0,0,0-.22.45.48.48,0,0,0,.08.3.81.81,0,0,0,.23.22l.34.18.42.16a8,8,0,0,1,.85.37,2,2,0,0,1,.59.43,1.54,1.54,0,0,1,.36.57,2.6,2.6,0,0,1,.11.79,1.7,1.7,0,0,1-.61,1.41,2.78,2.78,0,0,1-1.83.5,4.28,4.28,0,0,1-.75-.05A4.38,4.38,0,0,1,4,21a4,4,0,0,1-.43-.16l-.31-.16.39-1.16a3.52,3.52,0,0,0,.69.28A3.19,3.19,0,0,0,5.35,20Z"/><path class="cls-3" d="M11.3,21.21A3,3,0,0,1,10.17,21a2,2,0,0,1-.78-.53,2.13,2.13,0,0,1-.46-.82,3.39,3.39,0,0,1-.15-1v-4h1.4v3.92a2.62,2.62,0,0,0,.08.67,1.37,1.37,0,0,0,.24.45.88.88,0,0,0,.36.24,1.34,1.34,0,0,0,.46.08,1.12,1.12,0,0,0,.83-.33,1.58,1.58,0,0,0,.32-1.11V14.59h1.39v4a3.51,3.51,0,0,1-.15,1.05,2.27,2.27,0,0,1-.46.82,2.16,2.16,0,0,1-.8.53A3.35,3.35,0,0,1,11.3,21.21Z"/><path class="cls-3" d="M18,21.21a2.94,2.94,0,0,1-2.31-.88,3.59,3.59,0,0,1-.79-2.5,4.06,4.06,0,0,1,.24-1.44,3,3,0,0,1,.67-1.06,2.73,2.73,0,0,1,1-.66,3.48,3.48,0,0,1,1.26-.23,3.88,3.88,0,0,1,.72.06,5.29,5.29,0,0,1,.57.14,3.2,3.2,0,0,1,.4.17,1.86,1.86,0,0,1,.23.13l-.4,1.18a2.93,2.93,0,0,0-.67-.27,2.84,2.84,0,0,0-.86-.12,1.77,1.77,0,0,0-.64.12,1.29,1.29,0,0,0-.54.36,1.68,1.68,0,0,0-.38.64,2.67,2.67,0,0,0-.15.95,3.22,3.22,0,0,0,.1.84,1.78,1.78,0,0,0,.3.67,1.52,1.52,0,0,0,.55.45,1.89,1.89,0,0,0,.83.16,3,3,0,0,0,.54,0,2.15,2.15,0,0,0,.43-.09,2.27,2.27,0,0,0,.34-.11l.26-.12.38,1.17a3.39,3.39,0,0,1-.83.33A4.71,4.71,0,0,1,18,21.21Z"/><path class="cls-3" d="M22.84,14.52A3.68,3.68,0,0,1,25,15a1.81,1.81,0,0,1,.75,1.61,1.8,1.8,0,0,1-.31,1.11,1.84,1.84,0,0,1-.86.67A5.43,5.43,0,0,1,25,19c.14.21.28.43.41.66a6.85,6.85,0,0,1,.39.71c.13.24.25.49.35.72H24.54l-.35-.64c-.11-.22-.23-.43-.36-.64s-.24-.4-.36-.59-.24-.35-.36-.5h-.69v2.37H21v-6.4a9.25,9.25,0,0,1,.94-.13Zm.08,1.24h-.27l-.23,0v1.76h.39a2.39,2.39,0,0,0,1.13-.2.76.76,0,0,0,.34-.71.72.72,0,0,0-.34-.68A2.11,2.11,0,0,0,22.92,15.76Z"/><path class="cls-3" d="M27,21.08V14.59h4.2v1.23H28.4v1.27h2.48v1.2H28.4v1.57h3v1.22Z"/><path class="cls-3" d="M34.13,20a2.17,2.17,0,0,0,.49,0,1,1,0,0,0,.31-.14.54.54,0,0,0,.16-.21.86.86,0,0,0,0-.28.62.62,0,0,0-.29-.53,3.82,3.82,0,0,0-1-.45c-.2-.08-.41-.16-.61-.26a2.27,2.27,0,0,1-.55-.36,1.78,1.78,0,0,1-.39-.54,1.75,1.75,0,0,1-.15-.76,1.92,1.92,0,0,1,.16-.81,1.62,1.62,0,0,1,.45-.61,2.08,2.08,0,0,1,.72-.39,3.11,3.11,0,0,1,.95-.14,3.9,3.9,0,0,1,1.09.14,4.61,4.61,0,0,1,.75.31L35.88,16a6.31,6.31,0,0,0-.58-.25,2.48,2.48,0,0,0-.77-.1,1.45,1.45,0,0,0-.72.14.5.5,0,0,0-.22.45.56.56,0,0,0,.08.3.81.81,0,0,0,.23.22l.34.18.43.16a8.68,8.68,0,0,1,.84.37,1.92,1.92,0,0,1,.59.43,1.54,1.54,0,0,1,.36.57,2.3,2.3,0,0,1,.12.79A1.73,1.73,0,0,1,36,20.71a2.83,2.83,0,0,1-1.84.5,4.28,4.28,0,0,1-.75-.05A3.93,3.93,0,0,1,32.8,21a4.26,4.26,0,0,1-.44-.16l-.31-.16.39-1.16a3.79,3.79,0,0,0,.69.28A3.19,3.19,0,0,0,34.13,20Z"/><path class="cls-3" d="M7,34c0-.18-.11-.37-.18-.56s-.13-.39-.2-.58h-2l-.19.58c-.07.19-.13.38-.18.56H3c.2-.57.38-1.09.56-1.58s.34-.93.51-1.36.33-.83.49-1.22.33-.76.5-1.12h1.1c.17.36.33.74.5,1.12s.33.79.49,1.22.34.88.51,1.36.36,1,.55,1.58ZM5.58,29.9c0,.07-.06.18-.11.31s-.11.28-.17.46l-.21.57-.24.65H6.32c-.08-.23-.16-.44-.23-.65s-.14-.4-.21-.58l-.18-.45C5.65,30.07,5.61,30,5.58,29.9Z"/><path class="cls-3" d="M11.93,32.21a3.4,3.4,0,0,1-.08.73,1.54,1.54,0,0,1-.3.6,1.43,1.43,0,0,1-.57.4,2.37,2.37,0,0,1-.91.15A2.49,2.49,0,0,1,9.2,34a2.4,2.4,0,0,1-.6-.29L9,32.75a3.94,3.94,0,0,0,.46.23,1.51,1.51,0,0,0,.53.1.79.79,0,0,0,.61-.22,1.1,1.1,0,0,0,.18-.71V28.7h1.16Z"/><path class="cls-3" d="M17.94,31.34a3.34,3.34,0,0,1-.19,1.19,2.74,2.74,0,0,1-.54.86,2.28,2.28,0,0,1-.82.53,3,3,0,0,1-1,.17,2.94,2.94,0,0,1-1-.17,2.37,2.37,0,0,1-.82-.53,2.59,2.59,0,0,1-.55-.86,3.33,3.33,0,0,1-.2-1.19,3.17,3.17,0,0,1,.21-1.2,2.47,2.47,0,0,1,.56-.86,2.23,2.23,0,0,1,.82-.53,2.61,2.61,0,0,1,1-.17,2.8,2.8,0,0,1,1,.17,2.19,2.19,0,0,1,.81.53,2.45,2.45,0,0,1,.55.86A3.18,3.18,0,0,1,17.94,31.34Zm-3.92,0a2.53,2.53,0,0,0,.09.7,1.52,1.52,0,0,0,.27.54,1.07,1.07,0,0,0,.42.34,1.34,1.34,0,0,0,.58.12,1.37,1.37,0,0,0,.58-.12,1.18,1.18,0,0,0,.43-.34,1.7,1.7,0,0,0,.26-.54,2.19,2.19,0,0,0,.1-.7,2.26,2.26,0,0,0-.1-.71,1.7,1.7,0,0,0-.26-.54,1.21,1.21,0,0,0-.43-.35,1.37,1.37,0,0,0-.58-.12,1.21,1.21,0,0,0-.58.13,1.1,1.1,0,0,0-.42.35,1.52,1.52,0,0,0-.27.54A2.53,2.53,0,0,0,14,31.34Z"/><path class="cls-3" d="M20.92,34.09a2.43,2.43,0,0,1-.94-.16,1.76,1.76,0,0,1-.65-.43,1.79,1.79,0,0,1-.37-.66,2.61,2.61,0,0,1-.13-.85V28.7H20v3.19a1.73,1.73,0,0,0,.07.54,1.17,1.17,0,0,0,.19.37.69.69,0,0,0,.3.2,1.16,1.16,0,0,0,.38.06.93.93,0,0,0,.69-.27,1.27,1.27,0,0,0,.26-.9V28.7H23V32a2.61,2.61,0,0,1-.13.85,1.77,1.77,0,0,1-.38.67,1.8,1.8,0,0,1-.66.43A2.75,2.75,0,0,1,20.92,34.09Z"/><path class="cls-3" d="M28,28.7v1H26.42V34H25.26V29.71H23.71v-1Z"/><path class="cls-3" d="M28.71,34V28.7h3.47v1H29.87v1h2.05v1H29.87V33h2.48v1Zm2.67-6.67-1.22,1.06-.51-.47,1.05-1.23Z"/><path class="cls-3" d="M34.61,33.08a1.45,1.45,0,0,0,.4,0,.62.62,0,0,0,.26-.11.41.41,0,0,0,.13-.17.54.54,0,0,0,0-.22.5.5,0,0,0-.24-.43,3.13,3.13,0,0,0-.81-.37c-.17-.06-.34-.14-.51-.21a1.77,1.77,0,0,1-.45-.3,1.45,1.45,0,0,1-.33-.44,1.43,1.43,0,0,1-.12-.62,1.59,1.59,0,0,1,.13-.66,1.42,1.42,0,0,1,.38-.5,1.74,1.74,0,0,1,.59-.31,2.43,2.43,0,0,1,.79-.11,3.08,3.08,0,0,1,.9.11,3.45,3.45,0,0,1,.62.25l-.33.94a3.45,3.45,0,0,0-.48-.2,2,2,0,0,0-.64-.09,1.17,1.17,0,0,0-.6.12.4.4,0,0,0-.18.36.43.43,0,0,0,.07.24.55.55,0,0,0,.19.18,1.06,1.06,0,0,0,.28.15l.35.13a7,7,0,0,1,.7.3,1.86,1.86,0,0,1,.49.35,1.22,1.22,0,0,1,.3.47,2,2,0,0,1,.09.64,1.37,1.37,0,0,1-.5,1.15,2.4,2.4,0,0,1-1.52.41,4,4,0,0,1-.62,0,4.45,4.45,0,0,1-.48-.1l-.37-.13-.25-.13.32-.95a3.07,3.07,0,0,0,.57.23A2.83,2.83,0,0,0,34.61,33.08Z"/></g></svg>