<svg xmlns="http://www.w3.org/2000/svg" width="48" height="34" viewBox="0 0 48 34">
  <metadata><?xpacket begin="﻿" id="W5M0MpCehiHzreSzNTczkc9d"?>
<x:xmpmeta xmlns:x="adobe:ns:meta/" x:xmptk="Adobe XMP Core 5.6-c138 79.159824, 2016/09/14-01:09:01        ">
   <rdf:RDF xmlns:rdf="http://www.w3.org/1999/02/22-rdf-syntax-ns#">
      <rdf:Description rdf:about=""/>
   </rdf:RDF>
</x:xmpmeta>
                                                                                                    
                                                                                                    
                                                                                                    
                                                                                                    
                                                                                                    
                                                                                                    
                                                                                                    
                                                                                                    
                                                                                                    
                                                                                                    
                                                                                                    
                                                                                                    
                                                                                                    
                                                                                                    
                                                                                                    
                                                                                                    
                                                                                                    
                                                                                                    
                                                                                                    
                                                                                                    
                           
<?xpacket end="w"?></metadata>
<defs>
    <style>
      .cls-1 {
        fill: #44454a;
        fill-rule: evenodd;
      }
    </style>
  </defs>
  <path id="Forme_117" data-name="Forme 117" class="cls-1" d="M982,2461.5a1,1,0,0,0-1-1H955a1,1,0,0,0-1,1v22a1,1,0,0,1-2,0v-18a1,1,0,0,0-1-1h-7a1.012,1.012,0,0,0-.875.51l-4.932,8.88-3.9,3.9a1,1,0,0,0-.293.71v11a1,1,0,0,0,1,1h2.078a6.994,6.994,0,1,1,13.842,0h14.158a6.994,6.994,0,1,1,13.842,0H981a1,1,0,0,0,1-1v-28Zm-33,9h-2.383l-2.722,5.45a1,1,0,0,1-1.79-.9l3-6a1,1,0,0,1,.895-0.55h3A1,1,0,0,1,949,2470.5Zm-5,14a5,5,0,1,0,5,5A5,5,0,0,0,944,2484.5Zm28,0a5,5,0,1,0,5,5A5,5,0,0,0,972,2484.5Z" transform="translate(-934 -2460.5)"/>
</svg>
