<svg xmlns="http://www.w3.org/2000/svg" viewBox="0 0 40 40"><defs><style>.cls-1{fill:#fff;}.cls-2{fill:#bed832;}.cls-3{fill:#6bb6e3;}</style></defs><title>flag-common-fairtrade</title><g id="Calque_18" data-name="Calque 18"><rect id="Rectangle-path" width="40" height="40" rx="4" ry="4"/><g id="g14597"><polyline id="path14258" class="cls-1" points="5.46 32.92 7.88 32.92 7.88 33.42 6.21 33.42 6.21 34.67 7.79 34.67 7.79 35.25 6.21 35.25 6.21 37.17 5.46 37.17 5.46 32.92"/><path id="path14260" class="cls-1" d="M9.12,35.5h1.25l-.66-1.92Zm.17-2.58h.92l1.41,4.25h-.75L10.46,36H9l-.42,1.17H7.79l1.42-4.25Z"/><polyline id="path14262" class="cls-1" points="12.21 32.92 12.96 32.92 12.96 37.17 12.21 37.17 12.21 32.92"/><path id="path14264" class="cls-1" d="M14.71,34.83H15c.42,0,.92-.08.92-.75a.58.58,0,0,0-.49-.66.54.54,0,0,0-.18,0h-.58ZM14,32.92h1.33c.84,0,1.42.25,1.42,1.08a.92.92,0,0,1-.83,1h0c.59.17.67.5.75,1l.25,1.17h-.75L16,36.25c-.17-.67-.25-.92-.92-.92h-.33v1.84H14V32.92Z"/><polyline id="path14266" class="cls-1" points="18.21 33.42 17.13 33.42 17.13 32.92 20.04 32.92 20.04 33.42 18.96 33.42 18.96 37.17 18.21 37.17 18.21 33.42"/><path id="path14268" class="cls-1" d="M21.37,34.83h.34c.41,0,.91-.08.91-.75a.58.58,0,0,0-.48-.66.54.54,0,0,0-.18,0h-.59Zm-.75-1.91H22c.75,0,1.34.25,1.34,1.08a.93.93,0,0,1-.83,1h0c.58.17.67.5.75,1l.25,1.17h-.75l-.17-.92c-.16-.67-.25-.92-.91-.92h-.34v1.84h-.75Z"/><path id="path14270" class="cls-1" d="M25.12,35.5h1.25l-.66-1.92Zm.17-2.58h.92l1.42,4.25h-.75L26.46,36H25l-.42,1.17h-.75l1.42-4.25Z"/><path id="path14272" class="cls-1" d="M29,36.67h.33c.75,0,1.17-.34,1.17-1.67s-.25-1.58-1.17-1.58H29Zm-.67-3.75h1.09c1.33,0,1.83.58,1.83,2.08a2,2,0,0,1-1.83,2.17H28.29Z"/><polyline id="path14274" class="cls-1" points="31.96 32.92 34.46 32.92 34.46 33.42 32.71 33.42 32.71 34.67 34.38 34.67 34.38 35.25 32.71 35.25 32.71 36.67 34.54 36.67 34.54 37.17 31.96 37.17 31.96 32.92"/></g><path id="path14240" class="cls-2" d="M9.6,7.49a14.32,14.32,0,0,0,6.49,23.66,9.39,9.39,0,0,0,1-4c0-3.53-2.52-6.18-5.33-9.13l-.36-.38A8.86,8.86,0,0,1,8.85,11.4,11,11,0,0,1,9.6,7.49ZM8.67,9.24a11.86,11.86,0,0,0-.22,2.16,9.21,9.21,0,0,0,2.65,6.53l.36.38c2.8,2.94,5.21,5.49,5.21,8.86a8.86,8.86,0,0,1-.81,3.47A13.88,13.88,0,0,1,8.67,9.24ZM6.32,17.35a13.77,13.77,0,0,0,9.37,12.93,8.35,8.35,0,0,0,.71-3.11c0-3.26-2.38-5.77-5.14-8.67l-.36-.38A9.49,9.49,0,0,1,8.18,11.4c0-.29.07-.79.09-1.09a14,14,0,0,0-1.95,7"/><path id="path14236" class="cls-3" d="M20,3a14.25,14.25,0,0,0-7.68,2.25,9.17,9.17,0,0,0-1,4.05c0,.12,0,.25,0,.37.14,2.75,1.9,4.92,5.09,6.26,1.64.69,3.3,1.23,4.91,1.75C26.51,19.37,31,20.83,31,26.36v.18A14.35,14.35,0,0,0,20,3Zm0,.39a13.94,13.94,0,0,1,11.38,22c-.52-5.07-5.12-6.53-10-8.1-1.6-.52-3.25-1-4.87-1.74-3.05-1.28-4.73-3.33-4.86-5.92V9.3a8.63,8.63,0,0,1,1-3.77A13.81,13.81,0,0,1,20,3.39Zm6.82,9.37a3.68,3.68,0,0,1-1.37,2.46,4.47,4.47,0,0,1-6.14-.66,3.63,3.63,0,0,1-.81-2.7,3.68,3.68,0,0,1,1.39-2.5A4.42,4.42,0,0,1,26,10,3.72,3.72,0,0,1,26.82,12.76ZM20,3.67a13.61,13.61,0,0,0-7.16,2.05A8.38,8.38,0,0,0,12,9.29v.35c.12,2.47,1.75,4.44,4.68,5.68,1.62.68,3.27,1.21,4.86,1.73l.09,0c4.66,1.51,9.18,3,9.94,7.6a13.41,13.41,0,0,0,2.15-7.33A13.7,13.7,0,0,0,20,3.67m6.5,9.05A3.32,3.32,0,0,1,25.25,15a4.12,4.12,0,0,1-5.69-.62,3.35,3.35,0,0,1-.75-2.47A3.45,3.45,0,0,1,20.08,9.6a4.08,4.08,0,0,1,3-.83,4,4,0,0,1,2.71,1.45,3.37,3.37,0,0,1,.75,2.5M23,9.12a3.37,3.37,0,0,0-3.84,2.81,3.36,3.36,0,0,0,3.15,3.53A3.7,3.7,0,0,0,25,14.7a3,3,0,0,0,1.12-2A3.38,3.38,0,0,0,23,9.12"/></g></svg>