<svg xmlns="http://www.w3.org/2000/svg" viewBox="0 0 40 40"><defs><style>.a{fill:#c2d100;}.b{fill:#a2bc0c;}.c{fill:#fff;}</style></defs><title>bio_</title><path class="a" d="M36.729,18.43637,29.05113,11.01l-7.4836-7.73858a1.956,1.956,0,0,0-3.13067,0L10.97921,10.98,3.27145,18.43686a1.956,1.956,0,0,0,0,3.13066l7.7381,7.48324L18.43637,36.729a1.95726,1.95726,0,0,0,3.13116,0l.30153-.31185-7.467-7.67641.0351-.03542a6.269,6.269,0,0,1-1.08036-6.76059.42977.42977,0,0,1,.02876-.0636,6.2645,6.2645,0,0,1,3.29525-3.18111l.01259-.00526a6.23066,6.23066,0,0,1,1.57469-.42038c.03532-.12416.15119-.51649.35078-1.0576a4.9678,4.9678,0,0,0-.87188-.67027,2.46075,2.46075,0,0,1-1.69886.30455c-1.56044-.09361-2.126-1.68973-2.20688-2.52409a.42475.42475,0,0,1,.34251-.45811c1.47727-.28436,2.55506-.115,3.20309.50312a2.0225,2.0225,0,0,1,.60157,1.35006,4.26789,4.26789,0,0,1,.96519.65272,14.91711,14.91711,0,0,1,1.263-2.38131,2.399,2.399,0,0,1-.25885-1.19471,4.29709,4.29709,0,0,1,1.7205-3.18989,5.36279,5.36279,0,0,1,3.92718-.61235.42482.42482,0,0,1,.3228.44767c-.21716,2.63554-.98148,4.3579-2.27167,5.11925a3.0305,3.0305,0,0,1-1.55726.41711,3.45911,3.45911,0,0,1-1.31107-.25456c-.00807-.00363-.015-.00911-.02285-.01323a16.56544,16.56544,0,0,0-1.592,3.50816,6.24689,6.24689,0,0,1,5.0222,2.60381l6.49162,6.5848-.00009.00008,6.042-5.84211a1.95724,1.95724,0,0,0,0-3.13115Z"/><path class="b" d="M24.1955,20.82474a6.27828,6.27828,0,0,1,1.10041,2.702l.00036.00183a6.35311,6.35311,0,0,1,.07459.96887,6.2754,6.2754,0,0,1-10.93372,4.20789l-.03509.0354,7.467,7.67645.00824.00836,8.80981-9.01593.00006-.00012Z"/><path class="c" d="M25.29592,23.52679a6.24548,6.24548,0,0,0-6.12259-5.30585,16.56544,16.56544,0,0,1,1.592-3.50816c.00781.00412.01478.0096.02285.01323a3.45911,3.45911,0,0,0,1.31107.25456,3.0305,3.0305,0,0,0,1.55726-.41711c1.29019-.76135,2.05451-2.48371,2.27167-5.11925a.42482.42482,0,0,0-.3228-.44767,5.36279,5.36279,0,0,0-3.92718.61235,4.29709,4.29709,0,0,0-1.7205,3.18989,2.399,2.399,0,0,0,.25885,1.19471,14.91711,14.91711,0,0,0-1.263,2.38131,4.26789,4.26789,0,0,0-.96519-.65272,2.0225,2.0225,0,0,0-.60157-1.35006c-.648-.61809-1.72582-.78748-3.20309-.50312a.42475.42475,0,0,0-.34251.45811c.08089.83436.64644,2.43048,2.20688,2.52409a2.46075,2.46075,0,0,0,1.69886-.30455,4.9678,4.9678,0,0,1,.87188.67027c-.19959.54111-.31546.93344-.35078,1.0576a6.23066,6.23066,0,0,0-1.57469.42038l-.01259.00526a6.2645,6.2645,0,0,0-3.29525,3.18111.42977.42977,0,0,0-.02876.0636,6.27828,6.27828,0,1,0,12.01411,2.55272,6.35312,6.35312,0,0,0-.0746-.9689Z"/></svg>