<svg xmlns="http://www.w3.org/2000/svg" viewBox="0 0 40 40"><defs><style>.cls-1{fill:#4ccd8a;}.cls-2{fill:#fff;}</style></defs><title>flag-common-gmofree</title><g id="SANS_OGM" data-name="SANS OGM"><rect id="BG" class="cls-1" width="40" height="40" rx="4" ry="4"/><path id="smile" class="cls-2" d="M20.28,36.25a8.83,8.83,0,0,1-7.66-4.58A1,1,0,0,1,13,30.33a.92.92,0,0,1,1.25.34,6.85,6.85,0,0,0,6,3.58,6.76,6.76,0,0,0,6-3.58,1,1,0,0,1,1.34-.34A1.09,1.09,0,0,1,28,31.67,9.16,9.16,0,0,1,20.28,36.25Z"/><g id="sans"><path class="cls-2" d="M8.12,12.63a2.09,2.09,0,0,0,.61-.07,1.15,1.15,0,0,0,.4-.16.6.6,0,0,0,.2-.25.79.79,0,0,0,.06-.32A.71.71,0,0,0,9,11.21a4.82,4.82,0,0,0-1.25-.54L7,10.37a3,3,0,0,1-.69-.43,2.18,2.18,0,0,1-.5-.63,1.93,1.93,0,0,1-.19-.9,2.14,2.14,0,0,1,.2-1,2.12,2.12,0,0,1,.58-.72,2.69,2.69,0,0,1,.91-.46,4.05,4.05,0,0,1,1.2-.16,5.1,5.1,0,0,1,1.38.17,5.29,5.29,0,0,1,.95.36L10.33,8a4.44,4.44,0,0,0-.73-.29,3.12,3.12,0,0,0-1-.13,1.89,1.89,0,0,0-.92.17.58.58,0,0,0-.28.52.59.59,0,0,0,.11.36.94.94,0,0,0,.29.26,1.91,1.91,0,0,0,.43.21l.54.19a10.37,10.37,0,0,1,1.06.44,2.71,2.71,0,0,1,.76.5,1.89,1.89,0,0,1,.45.67,2.61,2.61,0,0,1,.15.94,2,2,0,0,1-.78,1.66,3.74,3.74,0,0,1-2.32.59A6.8,6.8,0,0,1,7.17,14a5.65,5.65,0,0,1-.74-.15,4.12,4.12,0,0,1-.56-.18c-.15-.07-.29-.13-.39-.19L6,12.14a4,4,0,0,0,.87.34A4.6,4.6,0,0,0,8.12,12.63Z"/><path class="cls-2" d="M17.86,13.94c-.09-.27-.18-.54-.28-.82l-.3-.84H14.2l-.3.84c-.1.28-.19.56-.28.82H11.78c.3-.82.58-1.59.85-2.29s.52-1.35.78-2,.5-1.21.75-1.76.5-1.1.77-1.63h1.68c.26.53.51,1.07.77,1.63s.5,1.14.75,1.76.52,1.27.79,2l.84,2.29ZM15.73,8c0,.11-.09.26-.17.45l-.26.67L15,10c-.12.3-.24.61-.36.94h2.25c-.12-.33-.24-.64-.35-.95s-.22-.58-.32-.83-.19-.47-.27-.66Z"/><path class="cls-2" d="M26.06,13.94c-.51-.88-1.06-1.74-1.65-2.6a26.41,26.41,0,0,0-1.89-2.41v5H20.77V6.29h1.44c.25.24.53.54.83.89s.62.73.93,1.13.63.82.94,1.25.6.85.87,1.24V6.29h1.76v7.65Z"/><path class="cls-2" d="M31.51,12.63a2.21,2.21,0,0,0,.62-.07,1.17,1.17,0,0,0,.39-.16.48.48,0,0,0,.2-.25.79.79,0,0,0,.06-.32.72.72,0,0,0-.36-.62,5.16,5.16,0,0,0-1.25-.54q-.39-.13-.78-.3a3.48,3.48,0,0,1-.69-.43,2.36,2.36,0,0,1-.5-.63,1.93,1.93,0,0,1-.19-.9,2.29,2.29,0,0,1,.2-1,2.12,2.12,0,0,1,.58-.72,2.78,2.78,0,0,1,.91-.46,4.12,4.12,0,0,1,1.21-.16,5,5,0,0,1,1.37.17,5.13,5.13,0,0,1,1,.36L33.72,8A4.44,4.44,0,0,0,33,7.71a3.08,3.08,0,0,0-1-.13,1.85,1.85,0,0,0-.91.17.56.56,0,0,0-.28.52.59.59,0,0,0,.1.36,1.07,1.07,0,0,0,.29.26,2.15,2.15,0,0,0,.43.21l.54.19a10.63,10.63,0,0,1,1.07.44,2.8,2.8,0,0,1,.75.5,1.89,1.89,0,0,1,.45.67,2.61,2.61,0,0,1,.15.94,2,2,0,0,1-.77,1.66,3.78,3.78,0,0,1-2.33.59,6.65,6.65,0,0,1-.94-.06,6.2,6.2,0,0,1-.75-.15,4.64,4.64,0,0,1-.56-.18l-.39-.19.5-1.37a4.51,4.51,0,0,0,.87.34A4.66,4.66,0,0,0,31.51,12.63Z"/></g><g id="OGM"><path class="cls-2" d="M14,21.82a5.66,5.66,0,0,1-.35,2.06,4.3,4.3,0,0,1-1,1.48,4.07,4.07,0,0,1-1.48.9,5.55,5.55,0,0,1-1.84.3,5.41,5.41,0,0,1-1.81-.3A4.12,4.12,0,0,1,5,23.88a5.82,5.82,0,0,1,0-4.11,4.39,4.39,0,0,1,1-1.49,4.24,4.24,0,0,1,1.48-.9,5.32,5.32,0,0,1,1.78-.3,5.41,5.41,0,0,1,1.81.3,4.15,4.15,0,0,1,1.48.9,4.34,4.34,0,0,1,1,1.49A5.44,5.44,0,0,1,14,21.82Zm-7.14,0A4.11,4.11,0,0,0,7,23,2.94,2.94,0,0,0,7.5,24a2.18,2.18,0,0,0,.78.59,2.46,2.46,0,0,0,1.05.21,2.51,2.51,0,0,0,1-.21,2.31,2.31,0,0,0,.79-.59,2.73,2.73,0,0,0,.48-.93,4.11,4.11,0,0,0,.17-1.21,4.16,4.16,0,0,0-.17-1.21,2.73,2.73,0,0,0-.48-.93,2.22,2.22,0,0,0-.79-.6,2.51,2.51,0,0,0-1-.21,2.46,2.46,0,0,0-1.05.22,2.21,2.21,0,0,0-.78.6,2.94,2.94,0,0,0-.49.93A4.19,4.19,0,0,0,6.84,21.82Z"/><path class="cls-2" d="M20.3,18.86a2.62,2.62,0,0,0-2.13.79,3.36,3.36,0,0,0-.65,2.17A4.24,4.24,0,0,0,17.68,23a2.72,2.72,0,0,0,.49.94,2.17,2.17,0,0,0,.81.61,2.81,2.81,0,0,0,1.13.21h.6l.44-.05V21.58h2.1v4.49a7.49,7.49,0,0,1-1.21.31,10.88,10.88,0,0,1-2.06.17,5.46,5.46,0,0,1-1.91-.32,3.91,3.91,0,0,1-1.47-.92,4.08,4.08,0,0,1-.94-1.48,5.65,5.65,0,0,1-.33-2,5.13,5.13,0,0,1,.37-2,4.26,4.26,0,0,1,2.49-2.41A5.25,5.25,0,0,1,20,17.08a7.27,7.27,0,0,1,2.11.28,3.7,3.7,0,0,1,.63.23l.36.18-.61,1.64a5.67,5.67,0,0,0-1-.39A4.68,4.68,0,0,0,20.3,18.86Z"/><path class="cls-2" d="M27.69,17.29c.17.29.35.64.57,1.07s.43.88.66,1.37.46,1,.68,1.52.44,1,.64,1.45c.2-.45.41-.94.63-1.45s.46-1,.69-1.52.45-.95.66-1.37.4-.78.56-1.07H34.7c.09.6.17,1.28.25,2s.14,1.53.2,2.34.11,1.62.16,2.43.09,1.58.13,2.3h-2c0-.89-.06-1.85-.11-2.89s-.11-2.09-.2-3.15c-.16.37-.34.78-.54,1.22s-.4.89-.59,1.34l-.56,1.28c-.18.41-.34.75-.46,1H29.46l-.46-1c-.19-.41-.37-.83-.57-1.28S28,22,27.84,21.56s-.37-.85-.54-1.22c-.09,1.06-.15,2.11-.2,3.15s-.08,2-.11,2.89h-2c0-.72.08-1.49.13-2.3s.1-1.62.16-2.43.13-1.59.2-2.34.16-1.42.25-2Z"/></g></g></svg>