<svg xmlns="http://www.w3.org/2000/svg" width="48" height="48" viewBox="0 0 48 48">
  <metadata><?xpacket begin="﻿" id="W5M0MpCehiHzreSzNTczkc9d"?>
<x:xmpmeta xmlns:x="adobe:ns:meta/" x:xmptk="Adobe XMP Core 5.6-c138 79.159824, 2016/09/14-01:09:01        ">
   <rdf:RDF xmlns:rdf="http://www.w3.org/1999/02/22-rdf-syntax-ns#">
      <rdf:Description rdf:about=""/>
   </rdf:RDF>
</x:xmpmeta>
                                                                                                    
                                                                                                    
                                                                                                    
                                                                                                    
                                                                                                    
                                                                                                    
                                                                                                    
                                                                                                    
                                                                                                    
                                                                                                    
                                                                                                    
                                                                                                    
                                                                                                    
                                                                                                    
                                                                                                    
                                                                                                    
                                                                                                    
                                                                                                    
                                                                                                    
                                                                                                    
                           
<?xpacket end="w"?></metadata>
<defs>
    <style>
      .cls-1 {
        fill: #44454a;
        fill-rule: evenodd;
      }
    </style>
  </defs>
  <path id="Forme_118" data-name="Forme 118" class="cls-1" d="M337,2471.06V2461H301v13a5,5,0,0,0,5,5h23.059A9,9,0,0,1,337,2471.06ZM314,2469h-6a1,1,0,0,1,0-2h6A1,1,0,0,1,314,2469Zm4-4H308a1,1,0,0,1,0-2h10A1,1,0,0,1,318,2465Zm9-1a1,1,0,0,1,1-1h4a1,1,0,0,1,0,2h-4A1,1,0,0,1,327,2464Zm10-6a5,5,0,0,0-5-5H306a5,5,0,0,0-5,5v1h36v-1Zm11,25h-3v-3a7,7,0,0,0-14,0v3h-3a1,1,0,0,0-1,1v16a1,1,0,0,0,1,1h20a1,1,0,0,0,1-1v-16A1,1,0,0,0,348,2483Zm-9.051,9.75a0.925,0.925,0,0,1,.051.25v3a1,1,0,0,1-2,0v-3a0.855,0.855,0,0,1,.051-0.25A2,2,0,1,1,338.949,2492.75ZM343,2483H333v-3a5,5,0,0,1,10,0v3Z" transform="translate(-301 -2453)"/>
</svg>
