<svg xmlns="http://www.w3.org/2000/svg" viewBox="0 0 40 40"><defs><style>.cls-1{fill:#4ccd8a;}.cls-2{fill:#fff;}</style></defs><title>flag-common-organic</title><g id="BIO"><rect id="BG" class="cls-1" width="40" height="40" rx="4" ry="4"/><path class="cls-2" d="M11.75,25.26c-.64,0-1.28,0-1.91-.06a12,12,0,0,1-2-.27V14a14.75,14.75,0,0,1,1.77-.22c.64-.05,1.23-.08,1.78-.08a11.93,11.93,0,0,1,2.05.16,4.86,4.86,0,0,1,1.6.53,2.78,2.78,0,0,1,1,1,2.75,2.75,0,0,1,.38,1.51A2.4,2.4,0,0,1,15.15,19a2.72,2.72,0,0,1,1.51,1.11,3.13,3.13,0,0,1,.4,1.59,3,3,0,0,1-1.33,2.68A7.17,7.17,0,0,1,11.75,25.26Zm-1.33-7H11.7a3.66,3.66,0,0,0,1.73-.3A1,1,0,0,0,14,17a1,1,0,0,0-.54-1,3.43,3.43,0,0,0-1.58-.28h-.72l-.69,0Zm0,1.95V23.1l.62,0,.74,0a4.6,4.6,0,0,0,1.9-.33,1.2,1.2,0,0,0,.73-1.21,1.19,1.19,0,0,0-.61-1.12,3.66,3.66,0,0,0-1.73-.33Z"/><path class="cls-2" d="M21.74,14a1.33,1.33,0,0,1-.44,1.05,1.62,1.62,0,0,1-2.11,0A1.33,1.33,0,0,1,18.75,14,1.35,1.35,0,0,1,19.19,13a1.65,1.65,0,0,1,2.11,0A1.35,1.35,0,0,1,21.74,14Zm-.23,11.08H19v-8.6h2.51Z"/><path class="cls-2" d="M32.14,20.8a5.24,5.24,0,0,1-.31,1.85A4,4,0,0,1,31,24.09a4,4,0,0,1-1.37.93A5.14,5.14,0,0,1,26,25a4,4,0,0,1-1.37-.93,4.22,4.22,0,0,1-.89-1.44,5.24,5.24,0,0,1-.32-1.85A5,5,0,0,1,23.77,19a4.08,4.08,0,0,1,.91-1.42,3.89,3.89,0,0,1,1.38-.92,4.49,4.49,0,0,1,1.74-.33,4.6,4.6,0,0,1,1.76.33,4,4,0,0,1,1.37.92A4.18,4.18,0,0,1,31.82,19,5.17,5.17,0,0,1,32.14,20.8Zm-2.56,0A3,3,0,0,0,29.12,19a1.53,1.53,0,0,0-1.32-.64,1.54,1.54,0,0,0-1.33.64A2.92,2.92,0,0,0,26,20.8a3,3,0,0,0,.47,1.79,1.54,1.54,0,0,0,1.33.66,1.52,1.52,0,0,0,1.32-.66A3.06,3.06,0,0,0,29.58,20.8Z"/></g></svg>