<svg xmlns="http://www.w3.org/2000/svg" viewBox="0 0 40 40"><defs><style>.a{fill:#a1daf8;}.b{fill:#009fe3;}.c{fill:#fff;}</style></defs><title>bebe_</title><path class="a" d="M36.729,18.43636,29.05113,11.01l-7.4836-7.73857a1.956,1.956,0,0,0-3.13067,0L10.97921,10.98,3.27145,18.43685a1.956,1.956,0,0,0,0,3.13067l7.7381,7.48324L18.43638,36.729a1.95724,1.95724,0,0,0,3.13115,0l.55527-.57426-.00026.00025-5.5776-5.62962a5.45047,5.45047,0,0,1-.5834-.58883l-.00638-.00645.00038-.00048A5.41573,5.41573,0,0,1,18.14419,21.376h-4.668a1.24488,1.24488,0,0,1,0-2.48976h2.06358l-.04766-.05977c0-1.4845,2.11-2.11,2.50939-2.50942a2.31147,2.31147,0,0,0,0-3.01761,3.16353,3.16353,0,0,1-.93511-2.35645,2.9934,2.9934,0,0,1,2.818-2.988l.001-.00553c.02927,0,.0582.00137.08728.00221.02907-.00084.058-.00221.08728-.00221l0,.00546a2.97766,2.97766,0,0,1,1.60185.58l.00006-.00067.00363.00362a3.00785,3.00785,0,0,1,.61363.61143L35.72067,22.54252l-.00012.00012,1.00848-.97512a1.95725,1.95725,0,0,0,0-3.13116Z"/><path class="a" d="M20.152,22.62008c-.03023.00283-.06081.0047-.092.0047-.02746,0-.05457-.00121-.08131-.00343a3.81041,3.81041,0,1,0,.17327-.00127Z"/><polygon class="b" points="21.662 8.534 21.662 8.535 21.666 8.538 21.662 8.534"/><polygon class="b" points="15.955 29.93 15.962 29.937 15.956 29.93 15.955 29.93"/><path class="b" d="M22.27918,9.14923a2.97651,2.97651,0,0,1,.5998,1.7937,3.16348,3.16348,0,0,1-.93512,2.35645,2.31162,2.31162,0,0,0,0,3.01764c.39941.39941,2.50946,1.0249,2.50946,2.5094v.05975h2.19043a1.24491,1.24491,0,1,1,0,2.48981H22.03712a5.41695,5.41695,0,1,1-5.49219,9.14941L22.12257,36.155l.00024-.00024L35.72053,22.5426l.00012-.00012Z"/><path class="c" d="M16.54494,30.5254l-.5834-.58883A5.45047,5.45047,0,0,0,16.54494,30.5254Z"/><path class="c" d="M21.66556,8.53781l.61363.61143A3.00785,3.00785,0,0,0,21.66556,8.53781Z"/><path class="c" d="M26.64377,18.88621H24.45329v-.05977c0-1.4845-2.11-2.11-2.50941-2.50942a2.3115,2.3115,0,0,1,0-3.01761A3.16352,3.16352,0,0,0,22.879,10.943a2.97673,2.97673,0,0,0-.59981-1.79372l-.61363-.61143-.00369-.003a2.97766,2.97766,0,0,0-1.60185-.58l0-.00546c-.02927,0-.05821.00137-.08728.00221-.02908-.00084-.058-.00221-.08728-.00221l-.001.00553a2.9934,2.9934,0,0,0-2.818,2.988,3.16353,3.16353,0,0,0,.93511,2.35645,2.31147,2.31147,0,0,1,0,3.01761c-.39938.3994-2.50939,1.02492-2.50939,2.50942l.04766.05977H13.47623a1.24488,1.24488,0,0,0,0,2.48976h4.668a5.41573,5.41573,0,0,0-2.18865,8.55367l.006.00693.5834.58883A5.41666,5.41666,0,1,0,22.0371,21.376h4.60667a1.24488,1.24488,0,0,0,0-2.48976Zm-6.66508,3.73514c.02674.00222.05385.00343.08131.00343.03115,0,.06173-.00187.092-.0047a3.81567,3.81567,0,1,1-.17327.00127Z"/></svg>