<svg id="Layer_1" data-name="Layer 1" xmlns="http://www.w3.org/2000/svg" viewBox="0 0 40 40"><defs><style>.cls-1{fill:#4ccd8a;}.cls-2{fill:#fff;}</style></defs><title>flag-common-vegetarian</title><path id="Rectangle-path" class="cls-1" d="M4,0H36a4,4,0,0,1,4,4V36a4,4,0,0,1-4,4H4a4,4,0,0,1-4-4V4A4,4,0,0,1,4,0Z"/><path id="Shape-2" class="cls-2" d="M18.24,21.82c-.75-1.58-1.5-3.16-2.17-4.75s-1.41-3.33-2-4.91S12.82,9,12.32,7.5s-1-2.75-1.41-3.92H15.4c.34,1.08.75,2.25,1.17,3.42l1.25,3.66,1.25,3.42c.42,1.16.83,2.08,1.17,2.91l1.08-2.91,1.25-3.42c.5-1.25.91-2.41,1.33-3.66S24.65,4.66,25,3.58H29.4L28,7.5c-.58,1.41-1.08,3-1.75,4.66l-2,4.83c-.66,1.67-1.41,3.25-2.16,4.75Z"/><path class="cls-2" d="M4.7,34.23c-.15-.32-.29-.66-.44-1s-.28-.7-.41-1-.25-.67-.35-1-.21-.6-.29-.85h.93c.07.23.14.47.23.73s.17.52.26.78l.25.74c.09.23.16.44.24.61.07-.17.14-.37.23-.61l.25-.74c.09-.26.18-.52.26-.78s.17-.5.24-.73H7c-.08.25-.18.53-.29.85s-.23.64-.36,1-.26.7-.4,1-.29.69-.44,1Z"/><path class="cls-2" d="M7.57,34.23V30.34h2.52v.74H8.41v.76H9.9v.72H8.41v.94h1.8v.73Zm1.94-4.91-.89.78-.36-.34L9,28.85Z"/><path class="cls-2" d="M12.75,31a1,1,0,0,0-.85.34,1.49,1.49,0,0,0-.26.93,2,2,0,0,0,.07.51,1.29,1.29,0,0,0,.19.41.9.9,0,0,0,.32.26,1.06,1.06,0,0,0,.45.09h.24l.18,0V32.18h.83V34.1a3,3,0,0,1-.48.14,4.55,4.55,0,0,1-.82.07,2.06,2.06,0,0,1-.76-.14,1.56,1.56,0,0,1-.58-.39,1.69,1.69,0,0,1-.37-.64,2.48,2.48,0,0,1-.14-.85,2.33,2.33,0,0,1,.15-.87,1.7,1.7,0,0,1,.4-.63,1.51,1.51,0,0,1,.59-.4,2,2,0,0,1,.73-.14,3.3,3.3,0,0,1,.47,0,2.51,2.51,0,0,1,.37.09l.25.09.14.08-.24.7a2,2,0,0,0-.39-.16A1.57,1.57,0,0,0,12.75,31Z"/><path class="cls-2" d="M14.81,34.23V30.34h2.51v.74H15.65v.76h1.49v.72H15.65v.94h1.8v.73Zm1.93-4.91-.88.78-.37-.34.76-.91Z"/><path class="cls-2" d="M20.93,30.34v.75H19.81v3.14H19V31.09H17.85v-.75Z"/><path class="cls-2" d="M23.63,34.23c0-.13-.08-.27-.13-.41s-.1-.29-.14-.43H21.9c0,.14-.09.28-.14.43s-.09.28-.13.41h-.87c.14-.42.27-.8.4-1.16s.25-.69.37-1,.24-.61.35-.9.24-.56.37-.83H23l.36.83c.12.29.24.58.36.9s.24.65.37,1,.26.74.4,1.16Zm-1-3-.09.23c0,.09-.07.21-.12.33s-.1.27-.15.42l-.18.49h1.07c-.06-.17-.11-.33-.17-.49s-.1-.29-.15-.42l-.13-.34Z"/><path class="cls-2" d="M26.21,30.3a2.22,2.22,0,0,1,1.28.31,1.09,1.09,0,0,1,.44,1,1.12,1.12,0,0,1-.18.66,1.15,1.15,0,0,1-.51.4c.07.1.15.21.23.34s.17.25.25.39.16.28.23.43.14.29.21.43h-.94l-.2-.38c-.07-.14-.15-.26-.22-.39l-.22-.35q-.1-.16-.21-.3H26v1.42h-.83V30.4a5,5,0,0,1,.56-.08Zm0,.75H26v1.06h.24a1.32,1.32,0,0,0,.68-.13.46.46,0,0,0,.2-.42.42.42,0,0,0-.21-.4A1.24,1.24,0,0,0,26.25,31.05Z"/><path class="cls-2" d="M28.8,30.34h.84v3.89H28.8Z"/><path class="cls-2" d="M30.61,34.23V30.34h2.51v.74H31.45v.76h1.48v.72H31.45v.94h1.79v.73Z"/><path class="cls-2" d="M36.46,34.23c-.23-.44-.49-.88-.77-1.32a14.16,14.16,0,0,0-.89-1.22v2.54H34V30.34h.68c.12.13.25.28.39.46s.29.37.44.57.3.42.44.64l.42.63v-2.3h.83v3.89Z"/></svg>